<svg xmlns="http://www.w3.org/2000/svg" xmlns:xlink="http://www.w3.org/1999/xlink" width="744.38" height="397.799" viewBox="0 0 744.38 397.799">
  <defs>
    <linearGradient id="linear-gradient" y1="0.5" x2="1" y2="0.5" gradientUnits="objectBoundingBox">
      <stop offset="0" stop-color="#2c9c48"/>
      <stop offset="1" stop-color="#34b34d"/>
    </linearGradient>
    <linearGradient id="linear-gradient-4" x1="0" y1="0.5" x2="1" y2="0.5" xlink:href="#linear-gradient"/>
    <linearGradient id="linear-gradient-6" y1="0.5" x2="1" y2="0.5" gradientUnits="objectBoundingBox">
      <stop offset="0" stop-color="#f69144"/>
      <stop offset="1" stop-color="#ffce45"/>
    </linearGradient>
  </defs>
  <g id="Component_1_1" data-name="Component 1 – 1" transform="translate(0 1.513)">
    <path id="Path_1" data-name="Path 1" d="M4094,4118.343s-80.933-97.492-41.379-197.86c25.782-65.421,122.5-101.269,177.075-65.421,23.246,15.268,97.826.514,137.647-62.7,77.383-122.835,347.45-48.235,298.283,140.359-23.793,91.265,72.413,94.583,23.392,185.812Z" transform="translate(-4000.251 -3730.25)" fill="#bfe2d8"/>
    <path id="Path_2" data-name="Path 2" d="M4081,4116.343s-80.933-97.492-41.379-197.86c25.782-65.421,122.5-101.269,177.075-65.421,23.246,15.268,97.826.514,137.647-62.7,77.383-122.835,347.45-48.235,298.283,140.359-23.793,91.265,72.413,94.583,23.392,185.812" transform="translate(-4000.251 -3730.25)" fill="none" stroke="#97c1b4" stroke-miterlimit="10" stroke-width="3"/>
    <path id="Path_3" data-name="Path 3" d="M4744.63,4126.536H4000.251v-13.609h744.38v13.609Z" transform="translate(-4000.251 -3730.25)" fill="#417c6c"/>
    <g id="Group_4" data-name="Group 4" transform="translate(-4000.251 -3730.25)">
      <g id="Group_1" data-name="Group 1">
        <path id="Path_4" data-name="Path 4" d="M4235.513,4112.927l-8.409-83.822-7.46.666,11.914,83.156Z" fill="#84a9ff"/>
      </g>
      <g id="Group_2" data-name="Group 2">
        <path id="Path_5" data-name="Path 5" d="M4152.813,4113.082l11.915-83.311-7.46-.666-8.409,83.977Z" fill="#84a9ff"/>
      </g>
      <g id="Group_3" data-name="Group 3">
        <path id="Path_6" data-name="Path 6" d="M4295.827,4113.082l-8.409-83.977-7.46.666,11.914,83.311Z" fill="#8cb4f4"/>
      </g>
      <path id="Path_7" data-name="Path 7" d="M4153.571,4016.685l-15.175-74.941c-1.948-10.146,6.459-19.424,17.376-19.175l29.267.669a23.118,23.118,0,0,1,21.681,16.689l22.2,76.758Z" fill="#84a9ff"/>
      <path id="Path_8" data-name="Path 8" d="M4162.752,4016.685l-15.175-74.941c-1.948-10.146,6.459-19.424,17.376-19.175l29.267.669a23.118,23.118,0,0,1,21.681,16.689l22.2,76.758Z" fill="#6b93f4"/>
      <path id="Rectangle_1" data-name="Rectangle 1" d="M4.23,0H120.022a4.23,4.23,0,0,1,4.23,4.23v9.438a0,0,0,0,1,0,0H4.23A4.23,4.23,0,0,1,0,9.438V4.23A4.23,4.23,0,0,1,4.23,0Z" transform="translate(4277.823 4030.354) rotate(180)" fill="#84a9ff"/>
      <rect id="Rectangle_2" data-name="Rectangle 2" width="80.63" height="13.668" rx="3.407" transform="translate(4289.361 4030.354) rotate(180)" fill="#6b93f4"/>
    </g>
    <g id="Group_7" data-name="Group 7" transform="translate(-4000.251 -3730.25)">
      <g id="Group_6" data-name="Group 6">
        <path id="Path_9" data-name="Path 9" d="M4254.444,4001c-6.264,10.9-14.143,15.111-14.143,15.111l-31.827-.427S4259.223,3992.685,4254.444,4001Z" fill="#233862"/>
        <g id="Group_5" data-name="Group 5">
          <path id="Path_10" data-name="Path 10" d="M4296.76,4109.674c.212,3.451,5.076,3.547,10.6,2.974s4.044.806,11.773,1.007,10.423-2.321,10.811-3.422c.345-.975-3.368-1.845-7.339-2.863-.5-.127-1-.259-1.5-.392-4.477-1.2-7.41-4.593-11.217-7.575-3.606-2.824-8.177-12.942-8.177-12.942l-10.554-.6s4.338,9.072,5.961,12.981c.954,2.3.5,5.1.049,7.255A13.524,13.524,0,0,0,4296.76,4109.674Z" fill="#fa997b"/>
          <path id="Path_11" data-name="Path 11" d="M4306.979,4112.963c5.528-.574,4.429.491,12.158.692s10.423-2.321,10.811-3.422c.345-.975-3.368-1.845-7.339-2.863l-.048.072a21.66,21.66,0,0,1-11.367,1.894c-5.182-.583-10.45-2.813-14.024-3.244a13.524,13.524,0,0,0-.41,3.582C4296.972,4113.125,4301.451,4113.536,4306.979,4112.963Z" fill="#0f2549"/>
          <path id="Path_12" data-name="Path 12" d="M4279.247,3989.834c-5.55-3.9-42.259-10.843-60.993-12.853l-20.705-17.974s-17.625,26.1-17.765,46.075c-.065,9.312,4.224,10.237,4.225,10.239s66.377.492,69.287.792c4.763.491,11.045,12.356,12.615,23.162s29.916,60.1,29.916,60.1,5.584.156,8.254,0a16.394,16.394,0,0,0,5.647-1.589S4291.762,3998.622,4279.247,3989.834Z" fill="#6d6e70"/>
          <path id="Path_13" data-name="Path 13" d="M4278.795,4110.354c.054,3.457,4.908,3.775,10.457,3.454s4,.989,11.714,1.542,10.518-1.844,10.955-2.925c.39-.959-3.279-2-7.2-3.195-.493-.149-.987-.305-1.482-.46-4.418-1.4-7.193-4.926-10.86-8.078-3.473-2.985-7.579-13.3-7.579-13.3l-10.515-1.085s3.92,9.261,5.363,13.239c.849,2.34.27,5.121-.281,7.25A13.486,13.486,0,0,0,4278.795,4110.354Z" fill="#fa997b"/>
          <path id="Path_14" data-name="Path 14" d="M4289.252,4113.808c5.549-.322,4,.989,11.714,1.542s10.518-1.844,10.955-2.925c.39-.959-3.279-2-7.2-3.195l-.051.07a21.66,21.66,0,0,1-11.442,1.374c-5.15-.819-10.31-3.286-13.861-3.88a13.486,13.486,0,0,0-.572,3.56C4278.849,4113.811,4283.7,4114.129,4289.252,4113.808Z" fill="#233862"/>
          <path id="Path_15" data-name="Path 15" d="M4261.926,3989.834c-4.821-3.385-19.322-6.01-35.328-7.958a10.768,10.768,0,0,1-9.14-8.081h0l-37.23-14.788s-17.625,26.1-17.764,46.075c-.066,9.312,4.223,10.237,4.224,10.239s66.377.492,69.287.792c4.763.491,11.045,12.356,12.615,23.162s30.5,60.405,30.5,60.405a41.922,41.922,0,0,0,7.6,1.189,25.59,25.59,0,0,0,6.434-1.027S4274.441,3998.622,4261.926,3989.834Z" fill="#808184"/>
          <path id="Path_16" data-name="Path 16" d="M4211.816,3851.522a26.278,26.278,0,0,0-13.875-4.2c-12.243-.292-24.242,19.958-24.778,26.621a20.159,20.159,0,0,1-3.1,10c-1.558,2.331-4-.018-8.413,3.393-3.882,3-2.382,6.145-5.122,8.45-3.31,2.784-6.331.282-10.584,6.55-2.647,3.9-.917,7.832-.971,10.784-.088,4.746-6.849,6.249-2.721,11.56,2.294,2.952-.981,4.766,3.516,9.069,3.99,3.819,5.021,0,7.827,2.041,5.841,4.248,16.62,0,16.62,0,.15.1,17.006-13.388,31.228-21.219C4222.768,3911.55,4224.278,3859.367,4211.816,3851.522Z" fill="#404041"/>
          <path id="Path_17" data-name="Path 17" d="M4208.951,3904.274c.066.034-6.725,3.123-11.627,1.5-4.612-1.519-8.674-8.463-8.609-8.473,2-.29,4.013-3.376,4.581-15.076l15.813,5.1s-.589,4.721-.832,9.185C4208.071,3900.262,4208.113,3903.829,4208.951,3904.274Z" fill="#fa997b"/>
          <path id="Path_18" data-name="Path 18" d="M4209.109,3887.329a42.957,42.957,0,0,1-.5,4.755c-8.8-1.732-13.561-5.952-15.311-9.682Z" fill="#ef5d23"/>
          <path id="Path_19" data-name="Path 19" d="M4211.729,3889.192c-5.6.712-18.618-1.807-20.031-10.766-1.937-12.284-6.5-19.774,6.009-22.343s15.647,1.766,17.249,5.726S4216.9,3888.535,4211.729,3889.192Z" fill="#fa997b"/>
          <path id="Path_20" data-name="Path 20" d="M4212.517,3863.045s-12.156-2.053-17.149,10c-3.316,8-11.914,1.647-11.914,1.647a33.657,33.657,0,0,0,4.581-12.911,6.06,6.06,0,0,1,3.742-4.869C4197.51,3854.612,4207.341,3847.86,4212.517,3863.045Z" fill="#404041"/>
          <path id="Path_21" data-name="Path 21" d="M4204.446,3856.933s4.836,3.943,7.591,5.795c3.759,2.525,4.308,8.447,4.136,11.411,0,0,2.587-14.2-2.8-19.087C4207.655,3849.875,4204.446,3856.933,4204.446,3856.933Z" fill="#404041"/>
          <path id="Path_22" data-name="Path 22" d="M4224.717,3934.332c-.6,40.06-.164,31.689-4.546,35.49-1.056.915-4.024,1.461-7.931,1.719-12.284.815-33.877-1.208-34.7-3.479-2.833-7.854-.833-10.295-3.2-22.32-.246-1.279-.551-2.663-.909-4.171-1.971-8.259-3.889-11.069,3.1-24.338,6.341-12.02,13.8-21.784,14.391-21.432,16.73,9.931,17.3,1.606,17.3,1.606S4225.01,3914.792,4224.717,3934.332Z" fill="#fff"/>
          <path id="Path_23" data-name="Path 23" d="M4208.233,3897.407s17.122,2.9,19.143,10.315,13.918,50.984,13.918,50.984-8.752,1.573-12.795-2.47-14.067-37.509-14.067-37.509Z" fill="#fff"/>
          <path id="Path_24" data-name="Path 24" d="M4212.24,3971.541c-12.284.815-33.877-1.208-34.7-3.479-2.833-7.854-.833-10.295-3.2-22.32l5.925-16.683s-.98,18.578,4.5,23.464,22.432,9.433,25.095,13.515A14.941,14.941,0,0,1,4212.24,3971.541Z" fill="#ebf3ff"/>
          <path id="Path_25" data-name="Path 25" d="M4198.166,3963.727s12.119-2.7,14.074-1.623,6.734,4.992,7.332,6.355-4.353-1.034-5.963-1.466c-1.043-.28-3.789.674-5.148,1.127-5.72,1.907-9.224.926-9.224.926Z" fill="#fa997b"/>
          <path id="Path_26" data-name="Path 26" d="M4190.93,3895.8s-17.152,1-22.785,8.859c-7.929,11.059-23.659,58.192-14.644,64.478,10.152,7.079,46.205,1.852,46.205,1.852s1.2-5.608-.469-8.32-28.8-7.095-30.048-8.347,15.65-24.414,15.65-28.17S4190.93,3895.8,4190.93,3895.8Z" fill="#fff"/>
          <path id="Path_27" data-name="Path 27" d="M4212.826,3965.477s2.54,3.276,3.372,3.667a2.481,2.481,0,0,0,1.37.293l-1.711-3.08Z" fill="#fa997b"/>
          <path id="Path_28" data-name="Path 28" d="M4212.24,3962.1l7.382,3.585a1.317,1.317,0,0,1-1.223.473,17.654,17.654,0,0,1-3.2-.88Z" fill="#fa997b"/>
        </g>
      </g>
    </g>
    <g id="Group_8" data-name="Group 8" transform="translate(-4000.251 -3730.25)">
      <path id="Path_29" data-name="Path 29" d="M4239.435,3970.6h-34.287a2.733,2.733,0,0,1,2.733-2.733h31.554Z" fill="#231f20"/>
      <path id="Path_30" data-name="Path 30" d="M4239.336,3933.261h53.01l-12.715,37.342h-53.354Z" fill="#231f20"/>
      <path id="Path_31" data-name="Path 31" d="M4293.127,3933.261l-12.715,37.342h-53.354l13.059-37.342Z" fill="#404041"/>
      <path id="Path_32" data-name="Path 32" d="M4264.547,3951.587a3.446,3.446,0,0,1-3.18,2.583,1.988,1.988,0,0,1-1.986-2.583,3.446,3.446,0,0,1,3.179-2.583A1.989,1.989,0,0,1,4264.547,3951.587Z" fill="#fff"/>
    </g>
    <g id="Group_12" data-name="Group 12" transform="translate(-4000.251 -3730.25)">
      <rect id="Rectangle_3" data-name="Rectangle 3" width="235.844" height="8.401" rx="1.769" transform="translate(4191.528 3970.603)" fill="#5492ed"/>
      <g id="Group_9" data-name="Group 9">
        <path id="Path_33" data-name="Path 33" d="M4432.957,4112.927l-20.385-138.049-7.579.217,23.841,137.832Z" fill="#5492ed"/>
      </g>
      <g id="Group_10" data-name="Group 10">
        <path id="Path_34" data-name="Path 34" d="M4188.038,4112.927l23.778-137.832-7.579-.217L4183.9,4112.927Z" fill="#5492ed"/>
      </g>
      <g id="Group_11" data-name="Group 11">
        <path id="Path_35" data-name="Path 35" d="M4235.949,4112.927l23.791-137.832-7.579-.217-20.353,138.049Z" fill="#5492ed"/>
      </g>
    </g>
    <g id="Group_13" data-name="Group 13" transform="translate(-4000.251 -3730.25)">
      <path id="Path_36" data-name="Path 36" d="M4360.48,4113.666H4394.5c1.636-2,1.034-9.364.786-11.77-.051-.484-.086-.767-.086-.767s-11.617-9.291-13.212-2.177c-.049.224-.108.442-.173.657-2.01,6.655-11.027,9.679-16.233,10.521C4362.194,4110.679,4360.943,4112.439,4360.48,4113.666Z" fill="#233862"/>
      <path id="Path_37" data-name="Path 37" d="M4467.662,3983.8c-1.483,0-70.366,12.934-81.76,27.038-5.692,7.045-6.538,88.418-6.538,88.418s7.042,8.731,22.25,3.661c0,0,11.151-55.673,10.328-72.56-.228-4.669,47.064-.675,55.72-2.916s29.8-21.069,25.145-30.243S4467.662,3983.8,4467.662,3983.8Z" fill="#233862"/>
      <path id="Path_38" data-name="Path 38" d="M4386.2,3963.87s-13.9.188-17.181,1.6-9.952,4.641-8.168,5.137,10.295-.2,12.134.077a30.981,30.981,0,0,0,5.235-.077h6.381Z" fill="#f48d71"/>
      <path id="Path_39" data-name="Path 39" d="M4460.8,3890.993s-10.577,3.278-21,31.975-14.378,30.246-18.166,31.373-37.038,7.745-37.038,7.745v8.517h51.232s19.211-18.274,24.97-30.576S4460.8,3890.993,4460.8,3890.993Z" fill="#ed7d2b"/>
      <path id="Path_40" data-name="Path 40" d="M4345.446,4113.666h34.018c1.636-2,1.033-9.364.785-11.77-.051-.484-.086-.767-.086-.767s-11.616-9.291-13.212-2.177c-.048.224-.107.442-.172.657-2.01,6.655-11.027,9.679-16.234,10.521C4347.16,4110.679,4345.909,4112.439,4345.446,4113.666Z" fill="#1b3051"/>
      <path id="Path_41" data-name="Path 41" d="M4447.364,3983.8c-1.484,0-70.367,12.934-81.761,27.038-5.692,7.045-6.538,88.418-6.538,88.418s7.042,8.731,22.251,3.661c0,0,11.151-55.673,10.327-72.56-.228-4.669,47.065-.675,55.721-2.916s29.8-21.069,25.144-30.243S4447.364,3983.8,4447.364,3983.8Z" fill="#2b478b"/>
      <path id="Path_42" data-name="Path 42" d="M4451.674,3900.088a66.848,66.848,0,0,0,14.642-3.187c5.613-1.822,10.138-4.484,7.222-9.614-2.687-4.729-7.036-15.292-6.742-24.042l-10.446,8.418-7.1,5.716a85.3,85.3,0,0,0,.805,9.278q.213,1.615.5,3.482a2.531,2.531,0,0,1-1.166,2.541l-.16.1A3.962,3.962,0,0,0,4451.674,3900.088Z" fill="#fa997b"/>
      <path id="Path_43" data-name="Path 43" d="M4449.255,3875.988s-.363,1.224.261,5.743c6.325-1.032,12.239-6.077,12.239-6.077-3.221-.884-4.392-4.364-6.791-4.039Z" fill="#ef5d23"/>
      <path id="Path_44" data-name="Path 44" d="M4443.4,3877.019s24.332,4.042,26.616-11.149,6.963-24.9-8.476-28.124-19.335,2.119-21.331,7S4437.134,3875.576,4443.4,3877.019Z" fill="#fa997b"/>
      <path id="Path_45" data-name="Path 45" d="M4438.657,3839.051c-1.045,3.658-.271,7.09,4.423,8.557,6.968,2.178,5.428,10.725,8.564,10.608s5.04-5.547,8.335-1.253c2.464,3.212-3.123,7.317-2.821,9.11.517,3.077,5.337,9.374,9.681,9.058s12.474-20.961,10.848-27.349-8.129-13.122-14.284-14.051-14.7,1.728-16.677,1.728S4439.222,3837.075,4438.657,3839.051Z" fill="#a9453e"/>
      <path id="Path_46" data-name="Path 46" d="M4493.131,3912.077c-3.516-14.155-13.236-29.007-19.809-28.995-11.2.022-27.3,2.977-33.8,19.012-4.787,11.81-11.173,79.745-3.956,84.576,16.5,11.045,54.739,33.592,61.532,10.6C4503.325,3976.2,4499.235,3936.643,4493.131,3912.077Z" fill="#f99746"/>
      <path id="Path_47" data-name="Path 47" d="M4392.574,3963.87s-13.9.188-17.18,1.6-9.952,4.641-8.168,5.137,10.295-.2,12.134.077a30.972,30.972,0,0,0,5.234-.077h6.382Z" fill="#fa997b"/>
      <path id="Path_48" data-name="Path 48" d="M4469.735,3898.443a13.264,13.264,0,0,0-21.046,3.328,125.5,125.5,0,0,0-7.34,17.815c-9.764,28.927-13.685,30.566-17.447,31.779s-37.253,10.909-37.253,10.909a10.027,10.027,0,0,0-1.093,4.1,6.175,6.175,0,0,0,1.287,4.412c-1.53-.224,14.485.217,21.886.781,9.775.745,23.382-.587,28.767-1.192a6.881,6.881,0,0,0,4.047-1.921c5.808-5.682,24.987-25.48,36.757-50.008C4481.4,3911.985,4475.631,3904.222,4469.735,3898.443Z" fill="#f99746"/>
      <path id="Path_49" data-name="Path 49" d="M4474.45,3883.219l-2.536-5.712s-22.7,1.85-26.51,14.768C4445.4,3892.275,4463,3883.5,4474.45,3883.219Z" fill="#fff"/>
    </g>
    <g id="Group_17" data-name="Group 17" transform="translate(-4000.251 -3730.25)">
      <g id="Group_14" data-name="Group 14">
        <path id="Path_50" data-name="Path 50" d="M4531.625,4112.927l-8.315-83.822-7.46.666,11.852,83.156Z" fill="#6b93f4"/>
      </g>
      <g id="Group_15" data-name="Group 15">
        <path id="Path_51" data-name="Path 51" d="M4487.625,4112.927l-8.32-83.822-7.46.666,11.856,83.156Z" fill="#6b93f4"/>
      </g>
      <g id="Group_16" data-name="Group 16">
        <path id="Path_52" data-name="Path 52" d="M4404.743,4112.927l11.895-83.156-7.46-.666-8.359,83.822Z" fill="#6b93f4"/>
      </g>
      <path id="Path_53" data-name="Path 53" d="M4527.136,4017.01l8.114-71.312c1.064-10.277-2.375-20.339-17.205-21.118l-26.089-1.589c-15.463-.638-22.445,12.231-24.4,22.139l-15.488,78.389Z" fill="#84a9ff"/>
      <path id="Rectangle_4" data-name="Rectangle 4" d="M4.23,0H124.252a0,0,0,0,1,0,0V9.438a4.23,4.23,0,0,1-4.23,4.23H4.23A4.23,4.23,0,0,1,0,9.438V4.23A4.23,4.23,0,0,1,4.23,0Z" transform="translate(4402.754 4016.685)" fill="#6b93f4"/>
      <path id="Rectangle_5" data-name="Rectangle 5" d="M3.285,0H74.94a0,0,0,0,1,0,0V10.383a3.285,3.285,0,0,1-3.285,3.285H3.285A3.285,3.285,0,0,1,0,10.383v-7.1A3.285,3.285,0,0,1,3.285,0Z" transform="translate(4452.066 4016.685)" fill="#84a9ff"/>
    </g>
    <path id="Path_54" data-name="Path 54" d="M4194.738,3874.536c.829,1.816-.114,3.071-1.633,3.746-2.382,1.06-3.41-.222-4.239-2.037s-.275-3.848,1.238-4.538S4193.909,3872.72,4194.738,3874.536Z" transform="translate(-4000.251 -3730.25)" fill="#fa997b"/>
    <ellipse id="Ellipse_1" data-name="Ellipse 1" cx="0.742" cy="1.456" rx="0.742" ry="1.456" transform="matrix(0.922, -0.388, 0.388, 0.922, 189.958, 143.763)" fill="#ef5d23"/>
    <ellipse id="Ellipse_2" data-name="Ellipse 2" cx="1.456" cy="0.742" rx="1.456" ry="0.742" transform="translate(455.32 129.646) rotate(-53.978)" fill="#ef5d23"/>
    <g id="Group_24" data-name="Group 24" transform="translate(-4000.251 -3730.25)">
      <g id="Group_18" data-name="Group 18">
        <path id="Path_55" data-name="Path 55" d="M4081.652,4090.125l1.183-.827c-.375-2.173-2.277-5.419-8.794-9.263-12.062-7.116-23.936-18.98-23.406-25.282,0,0-5.694,16.035,2.775,22.648C4061.36,4083.608,4077.24,4080.338,4081.652,4090.125Z" fill="url(#linear-gradient)"/>
      </g>
      <g id="Group_19" data-name="Group 19">
        <path id="Path_56" data-name="Path 56" d="M4076.538,4081.946a32.047,32.047,0,0,1,2.316,6.326l.637-.344c-.158-5.52-1.347-15.756-7.292-25.246-8.687-13.869-19.424-31.337-19.424-31.337s-4.554,20.991,10.1,33.62C4070.18,4071.262,4074.26,4077.227,4076.538,4081.946Z" fill="url(#linear-gradient)"/>
      </g>
      <g id="Group_20" data-name="Group 20">
        <path id="Path_57" data-name="Path 57" d="M4084.746,4086.214a28.332,28.332,0,0,1-5.154,2.948l.394.5a45.206,45.206,0,0,0,20.854-10.071c10.763-9.6,24.35-21.512,24.35-21.512s-18.91-.85-27.714,13.748C4093.087,4079.109,4088.508,4083.536,4084.746,4086.214Z" fill="url(#linear-gradient)"/>
      </g>
      <g id="Group_21" data-name="Group 21">
        <path id="Path_58" data-name="Path 58" d="M4081.6,4091.021c.31,3.081.568,5.209.67,6.664l.606.007c.272-5.214.737-14.22.581-20.245-.23-8.87,2.492-12.491,4.19-27.423s-2.267-36.149-2.267-36.149-10.424,18.858-7.149,40.041S4080.236,4077.439,4081.6,4091.021Z" fill="url(#linear-gradient-4)"/>
      </g>
      <g id="Group_22" data-name="Group 22">
        <path id="Path_59" data-name="Path 59" d="M4105.424,4029.994c-.5,3.414-10.287,23.334-16.312,36.651a40.039,40.039,0,0,0-2.682,23.968l1.21-.025c-.822-4.542-1.1-3.839-.207-10.969.981-7.821,11.991-13.476,18.665-28.651S4105.925,4026.579,4105.424,4029.994Z" fill="url(#linear-gradient)"/>
      </g>
      <g id="Group_23" data-name="Group 23">
        <path id="Path_60" data-name="Path 60" d="M4065.145,4089.16l3.458,20.463a3.963,3.963,0,0,0,3.909,3.3h19.99a3.964,3.964,0,0,0,3.909-3.3l3.458-20.463a3.032,3.032,0,0,0-2.99-3.537h-28.744A3.033,3.033,0,0,0,4065.145,4089.16Z" fill="url(#linear-gradient-6)"/>
      </g>
    </g>
    <g id="Group_32" data-name="Group 32" transform="translate(-4000.251 -3730.25)">
      <path id="Rectangle_6" data-name="Rectangle 6" d="M3.928,0H50.994a3.928,3.928,0,0,1,3.928,3.928V49.355a3.928,3.928,0,0,1-3.928,3.928H3.929A3.929,3.929,0,0,1,0,49.355V3.928A3.928,3.928,0,0,1,3.928,0Z" transform="translate(4524.95 3770.296)" fill="#97c1b4"/>
      <rect id="Rectangle_7" data-name="Rectangle 7" width="50.164" height="48.667" rx="3.588" transform="translate(4527.329 3772.604)" fill="#bfe2d8"/>
      <g id="Group_31" data-name="Group 31">
        <g id="Group_27" data-name="Group 27">
          <g id="Group_25" data-name="Group 25">
            <circle id="Ellipse_3" data-name="Ellipse 3" cx="1.138" cy="1.138" r="1.138" transform="translate(4551.273 3776.33)" fill="#97c1b4"/>
            <path id="Path_61" data-name="Path 61" d="M4560.453,3779.076a1.138,1.138,0,1,1,.442,1.547A1.138,1.138,0,0,1,4560.453,3779.076Z" fill="#97c1b4"/>
            <path id="Path_62" data-name="Path 62" d="M4568.318,3785.324a1.138,1.138,0,1,1-.339,1.573A1.138,1.138,0,0,1,4568.318,3785.324Z" fill="#97c1b4"/>
            <path id="Path_63" data-name="Path 63" d="M4572.214,3795a1.138,1.138,0,1,1-1.138,1.138A1.139,1.139,0,0,1,4572.214,3795Z" fill="#97c1b4"/>
            <path id="Path_64" data-name="Path 64" d="M4570.225,3806.219a1.138,1.138,0,1,1-1.609,0A1.138,1.138,0,0,1,4570.225,3806.219Z" fill="#97c1b4"/>
            <path id="Path_65" data-name="Path 65" d="M4563.081,3813.382a1.137,1.137,0,1,1-1.609,0A1.137,1.137,0,0,1,4563.081,3813.382Z" fill="#97c1b4"/>
            <path id="Path_66" data-name="Path 66" d="M4551.273,3817.074a1.138,1.138,0,1,1,1.138,1.137A1.138,1.138,0,0,1,4551.273,3817.074Z" fill="#97c1b4"/>
          </g>
          <g id="Group_26" data-name="Group 26">
            <path id="Path_67" data-name="Path 67" d="M4544.332,3779.076a1.138,1.138,0,1,0-.441,1.547A1.137,1.137,0,0,0,4544.332,3779.076Z" fill="#97c1b4"/>
            <path id="Path_68" data-name="Path 68" d="M4536.468,3785.324a1.138,1.138,0,1,0,.339,1.573A1.137,1.137,0,0,0,4536.468,3785.324Z" fill="#97c1b4"/>
            <path id="Path_69" data-name="Path 69" d="M4532.572,3795a1.138,1.138,0,1,0,1.138,1.138A1.138,1.138,0,0,0,4532.572,3795Z" fill="#97c1b4"/>
            <path id="Path_70" data-name="Path 70" d="M4534.561,3806.219a1.138,1.138,0,1,0,1.609,0A1.138,1.138,0,0,0,4534.561,3806.219Z" fill="#97c1b4"/>
            <circle id="Ellipse_4" data-name="Ellipse 4" cx="1.138" cy="1.138" r="1.138" transform="translate(4541.372 3813.048)" fill="#97c1b4"/>
          </g>
        </g>
        <g id="Group_30" data-name="Group 30">
          <path id="Path_71" data-name="Path 71" d="M4552.1,3796.133a1.138,1.138,0,1,1,1.138,1.138A1.138,1.138,0,0,1,4552.1,3796.133Z" fill="#97c1b4"/>
          <g id="Group_28" data-name="Group 28">
            <rect id="Rectangle_8" data-name="Rectangle 8" width="0.311" height="14.213" transform="translate(4553.087 3781.92)" fill="#97c1b4"/>
          </g>
          <g id="Group_29" data-name="Group 29">
            <rect id="Rectangle_9" data-name="Rectangle 9" width="9.579" height="0.932" transform="translate(4552.811 3795.746) rotate(-38.132)" fill="#97c1b4"/>
          </g>
        </g>
      </g>
    </g>
    <path id="Path_72" data-name="Path 72" d="M4609.352,4112.951h48.824c2.616-2.219-1.811-7.259-6.436-7.6a28.58,28.58,0,0,0-7.452.882c-.672-8.923-4.508-49.04-18.969-47.427-16.259,1.8,0,17.666,4.6,27.057a223.625,223.625,0,0,1,8.637,21.637c-1.32.287-2.687.567-4.082.824-2.156-6.617-10.174-28.873-20.371-27.577-11.972,1.518-7.16,10.442,1.326,15.739,6.226,3.9,13.87,9.432,17.5,12.107a51.89,51.89,0,0,1-9.549.765C4615.017,4109.161,4610.935,4111.626,4609.352,4112.951Z" transform="translate(-4000.251 -3730.25)" fill="url(#linear-gradient)"/>
  </g>
</svg>
